# xmcd CD database file
#
# Track frame offsets:
#	150
#	2670
#	16600
#	37979
#	56247
#	79527
#	104031
#	127346
#	150402
#	178021
#	181047
#	197017
#	219425
#	223536
#	254805
#
# Disc length: 3490 seconds
#
# Revision: 2
# Processed by: cddbd v1.5.1PL2 Copyright (c) Steve Scherf et al.
# Submitted via: CDex 1.51
#
DISCID=ca0da00f
DTITLE=Till Brönner - Blue Eyed Soul
DYEAR=2004
DGENRE=Jazz
TTITLE0=Intro
TTITLE1=Track one
TTITLE2=Diavolo
TTITLE3=Blue eyed soul
TTITLE4=No fusion generation
TTITLE5=42nd and 6th
TTITLE6=Tub of love
TTITLE7=Just the way you are
TTITLE8=Love somebody
TTITLE9=Trash
TTITLE10=Jazz musician
TTITLE11=Oscar said
TTITLE12=Reverand Henry
TTITLE13=Dim the lights
TTITLE14=Banizm
EXTD=YEAR: 2004
EXTT0=
EXTT1=
EXTT2=
EXTT3=
EXTT4=
EXTT5=
EXTT6=
EXTT7=
EXTT8=
EXTT9=
EXTT10=
EXTT11=
EXTT12=
EXTT13=
EXTT14=
PLAYORDER=
